<?xml version="1.0" standalone="no"?>
<!DOCTYPE svg PUBLIC "-//W3C//DTD SVG 20010904//EN"
 "http://www.w3.org/TR/2001/REC-SVG-20010904/DTD/svg10.dtd">
<svg version="1.0" xmlns="http://www.w3.org/2000/svg"
 width="700.000000pt" height="700.000000pt" viewBox="0 0 700.000000 700.000000"
 preserveAspectRatio="xMidYMid meet">
<metadata>
Created by potrace 1.14, written by Peter Selinger 2001-2017
</metadata>
<g transform="translate(0.000000,700.000000) scale(0.100000,-0.100000)"
fill="#000000" stroke="none">
<path d="M3278 6685 c-1 -2 -43 -6 -93 -10 -49 -3 -92 -8 -95 -10 -3 -1 -32
-6 -65 -10 -193 -21 -523 -110 -730 -196 -16 -6 -34 -13 -40 -14 -21 -5 -254
-120 -340 -168 -157 -88 -388 -249 -504 -352 -252 -222 -414 -403 -582 -650
-100 -148 -220 -365 -281 -510 -9 -22 -26 -61 -36 -86 -40 -94 -112 -318 -140
-439 -27 -112 -35 -155 -58 -295 -44 -268 -39 -677 11 -1000 31 -197 109 -471
187 -660 16 -38 34 -83 40 -100 6 -16 36 -79 67 -140 176 -345 389 -631 665
-894 33 -31 69 -65 81 -76 80 -76 363 -285 465 -343 19 -11 62 -35 95 -54 250
-143 619 -282 895 -337 93 -19 81 -17 235 -41 201 -31 634 -34 825 -5 14 2 50
7 80 10 30 4 64 9 75 11 11 3 56 11 100 20 367 70 773 238 1110 459 95 62 117
72 155 72 54 0 81 28 89 94 1 4 31 32 69 64 216 183 446 441 609 685 116 174
242 417 317 610 91 237 169 552 192 770 3 30 9 91 13 135 9 87 6 489 -4 570
-9 72 -44 306 -49 330 -76 350 -206 690 -362 952 -26 43 -52 87 -58 98 -12 21
-85 133 -99 150 -4 6 -31 42 -59 80 -269 364 -651 691 -1064 911 -259 138
-592 258 -859 309 -109 21 -189 34 -245 40 -36 4 -78 9 -95 12 -34 6 -511 13
-517 8z"/>
</g>
</svg>
